<?xml version="1.0" encoding="UTF-8"?><svg id="Layer_2" xmlns="http://www.w3.org/2000/svg" viewBox="0 0 48.21 29.4"><defs><style>.cls-1{fill:#231f20;}.cls-2{fill:none;stroke:#231f20;stroke-miterlimit:10;}</style></defs><g id="Layer_1-2"><path d="m32.81,15.08c-.1,4.52-3.6,8.17-8.39,8.16-2.2,0-4.17-.82-5.64-2.18.09-.06.18-.12.27-.18.09-.05.18-.11.27-.17.11-.08.23-.15.34-.22.27-.19.55-.37.83-.56t.02-.01c.16-.1.33-.23.5-.33.01-.01.02-.01.03-.02.02,0,.03-.02.04-.03,1.34-.9,2.69-1.8,4.07-2.69h0s.1-.07.16-.11c.29-.2.59-.39.89-.58.47-.32.94-.63,1.43-.95t.03-.02c.15-.1.31-.2.46-.3.58-.37,1.16-.75,1.74-1.12.09-.06.17-.11.26-.17.42-.28.84-.56,1.25-.83.34-.21.66-.43.98-.65.32.92.48,1.91.46,2.96Z"/><path d="m29.75,8.02s-.03.02-.04.03c-.07.04-.13.09-.2.13-.5.33-.99.64-1.48.97-.11.07-.22.14-.32.22-.02.01-.06.03-.08.05-.06.03-.12.07-.17.11-.04.03-.08.06-.12.08-.44.3-.89.6-1.34.89-.13.08-.25.17-.38.25-.26.17-.53.35-.79.53-.19.12-.38.24-.57.37-.2.13-.4.26-.6.4-.07.04-.13.09-.21.13-1.18.79-2.39,1.59-3.59,2.37-.34.22-.68.45-1.03.67-.04.03-.09.06-.14.09-.01.01-.03.02-.04.03-.16.1-.32.2-.48.3-.21.13-.39.25-.6.39-.07.05-.15.1-.22.15-.07.05-.15.1-.21.14-.24.16-.48.32-.72.49-.24-.8-.35-1.66-.34-2.56.07-4.58,3.9-8.15,8.28-8.13,2.07.02,3.95.73,5.39,1.9Z"/><path d="m32.17,26.22c-1.95.75-3.95,1.26-6.04,1.48-.71.08-1.43.1-2.08.11-1.78-.02-3.47-.25-5.13-.66-1.44-.35-2.82-.85-4.18-1.44-.2-.09-.41-.18-.61-.28-.43-.19-.85-.4-1.26-.62.05-.04.1-.07.15-.1h.03s.04-.04.08-.06c.37-.23.73-.46,1.08-.69.39-.25.78-.5,1.16-.75.29.13.58.26.88.38.36.15.73.29,1.1.42,2.04.73,4.11,1.22,5.61,1.23,2.88.07,5.02-.27,7.12-.96.43-.14.85-.29,1.26-.45.17.84.45,1.65.83,2.39Z"/><path d="m48.14,14.17c-.38.47-.76.94-1.16,1.39-.69-.77-1.5-1.42-2.39-1.91,0-.02-.02-.03-.03-.04-1.89-2-3.92-3.85-6.16-5.46.63-.41,1.25-.81,1.87-1.22.13-.09.27-.18.4-.26.3.22.59.46.89.69,2.03,1.62,3.9,3.41,5.62,5.36.34.38.64.79.97,1.17.1.12.07.18-.01.28Z"/><path d="m36.23,3.75c-.82.54-1.63,1.04-2.44,1.58-.29-.15-.58-.29-.87-.42l-.81-.36c-2.03-.86-4.13-1.49-6.34-1.68-1.35-.12-2.7-.11-4.04.06-2.13.27-4.16.91-6.11,1.8-3.39,1.54-6.4,3.66-9.17,6.12-1.04.93-2.03,1.92-2.98,2.94-.16.17-.19.29-.01.47.82.81,1.59,1.67,2.45,2.45,1.33,1.2,2.68,2.35,4.14,3.39.2.14.41.28.61.41-.23.15-.46.3-.7.44t-.03.02c-.53.33-1.06.67-1.59,1.01-.68-.49-1.34-1-1.99-1.52-1.64-1.32-3.18-2.78-4.62-4.32-.59-.63-1.11-1.33-1.67-1.99-.1-.12-.05-.19.02-.28,1.79-2.21,3.8-4.19,5.99-6.02,1.65-1.38,3.41-2.6,5.23-3.73,1.22-.77,2.54-1.36,3.87-1.94,1.01-.45,2.05-.82,3.12-1.12,2.04-.56,4.12-.84,6.24-.79,3.41.07,6.61.99,9.67,2.43.06.03.13.06.19.09.63.3,1.24.62,1.84.96Z"/><path d="m32.45,14.2c-.11,4.51-3.61,8.16-8.4,8.15-1.77,0-3.39-.53-4.72-1.46-.06-.04-.13-.09-.19-.14.45-.3.91-.6,1.37-.91.01-.01.02-.01.03-.02.29-.18.58-.38.88-.57.02,0,.04-.03.06-.04.73.38,1.57.6,2.46.62,3.32.06,5.93-2.48,5.96-5.75,0-.14,0-.27-.01-.4.78-.52,1.56-1.02,2.35-1.55.15.66.22,1.36.21,2.07Z"/><path d="m29.84,7.95c-.44.28-.87.57-1.31.86-.3.2-.62.4-.93.6-.18-.14-.37-.27-.57-.38-.83-.49-1.79-.78-2.81-.8-3.25-.07-5.92,2.53-5.96,5.72-.01.49.06.98.18,1.44-.28.18-.57.36-.86.54-.34.21-.64.41-.98.64-.12.08-.24.16-.36.24-.32-.92-.48-1.93-.47-2.99.07-4.58,3.9-8.15,8.28-8.12,1.88.02,3.58.6,4.96,1.58.29.21.57.43.83.67Z"/><path class="cls-2" d="m47.35,21.67c0,3.85-3.12,6.98-6.98,6.98s-6.97-3.13-6.97-6.98,3.12-6.97,6.97-6.97,6.98,3.12,6.98,6.97Z"/><path class="cls-1" d="m42.08,25.08c-.4.84-1.29,1.53-2.16,1.62-1.01.1-1.61-.64-1.33-1.65h0s1.28-4.83,1.28-4.83l1.77-.18-1.28,4.83c-.14.54.17.93.7.87.39-.04.79-.31,1.03-.66Z"/><path class="cls-1" d="m42.21,17.68c0,.56-.47,1.02-1.04,1.02s-1.04-.46-1.04-1.02.47-1.02,1.04-1.02,1.04.46,1.04,1.02Z"/><path d="m45.9,1.67c-.03.42-.35.69-.69.92-1.55,1.04-3.11,2.09-4.67,3.12-1.61,1.05-3.21,2.11-4.82,3.17-.57.39-1.15.76-1.73,1.14-.26.17-.52.34-.78.51-.08.05-.16.1-.24.16-.38.25-.75.5-1.14.75-.5.33-1.01.67-1.51,1-.58.37-1.16.75-1.73,1.12-.16.1-.31.2-.47.3-.01,0-.02.01-.03.02-.48.32-.96.63-1.43.95-.3.19-.6.39-.89.58-.06.04-.11.07-.16.1h0c-1.37.9-2.73,1.8-4.07,2.7-.01,0-.02.02-.04.02-.18.12-.36.24-.54.35,0,0-.01,0-.02.01-.28.19-.56.37-.83.56-.11.07-.23.15-.33.22-.09.07-.18.12-.27.18-.57.37-1.13.73-1.69,1.11-.23.15-.47.31-.71.46-.21.14-.43.28-.66.42-.02.01-.03.02-.05.03h-.02s-.06.04-.09.07c-.34.22-.68.44-1.02.66-1.72,1.13-3.43,2.25-5.13,3.37-1.75,1.16-3.5,2.34-5.27,3.49-.5.33-1.1.29-1.66.01-.55-.29-.84-.7-.8-1.26.04-.46.21-.85.66-1.1,1.23-.73,2.38-1.54,3.56-2.35,1.33-.91,2.71-1.75,4.05-2.66.69-.47,1.38-.94,2.09-1.4.26-.17.52-.34.78-.5.32-.21.64-.42.97-.62t.02-.01c.15-.09.29-.18.43-.27,1.08-.68,2.12-1.41,3.18-2.12.07-.05.14-.1.21-.15.07-.05.15-.1.22-.15.21-.14.39-.26.6-.39.18-.11.35-.22.52-.33.05-.03.1-.06.15-.09.35-.22.68-.44,1.02-.66,1.2-.78,2.41-1.58,3.59-2.38.09-.04.15-.09.21-.13.2-.13.4-.27.6-.4.19-.12.38-.24.57-.37.27-.18.53-.36.8-.53.12-.09.25-.17.37-.25.45-.29.9-.59,1.34-.89.09-.06.18-.13.29-.2.02-.02.06-.04.09-.05.1-.07.21-.15.32-.22.49-.33.99-.64,1.48-.97.07-.04.13-.09.19-.13.23-.14.46-.29.68-.45.15-.09.3-.2.45-.29.45-.3.9-.61,1.36-.91.96-.62,1.93-1.23,2.9-1.87,1.22-.79,2.42-1.62,3.63-2.42,1.19-.81,2.4-1.59,3.63-2.36.56-.38,1.18-.43,1.83-.06.57.34.81.82.72,1.41Z"/></g></svg>